<?xml version="1.0" encoding="UTF-8" standalone="no"?>
<svg
   xmlns:dc="http://purl.org/dc/elements/1.1/"
   xmlns:cc="http://creativecommons.org/ns#"
   xmlns:rdf="http://www.w3.org/1999/02/22-rdf-syntax-ns#"
   xmlns:svg="http://www.w3.org/2000/svg"
   xmlns="http://www.w3.org/2000/svg"
   viewBox="0 0 413.19876 427.505"
   height="427.505"
   width="413.19876"
   xml:space="preserve"
   version="1.1"
   id="svg2"><metadata
     id="metadata8"><rdf:RDF><cc:Work
         rdf:about=""><dc:format>image/svg+xml</dc:format><dc:type
           rdf:resource="http://purl.org/dc/dcmitype/StillImage" /></cc:Work></rdf:RDF></metadata><defs
     id="defs6"><clipPath
       id="clipPath16"
       clipPathUnits="userSpaceOnUse"><path
         id="path18"
         d="m 0,342.004 330.559,0 L 330.559,0 0,0 0,342.004 Z" /></clipPath></defs><g
     transform="matrix(1.25,0,0,-1.25,0,427.505)"
     id="g10"><g
       id="g12"><g
         clip-path="url(#clipPath16)"
         id="g14"><g
           transform="translate(242.123,94.158)"
           id="g20"><path
             id="path22"
             style="fill:#9cc659;fill-opacity:1;fill-rule:nonzero;stroke:none"
             d="m 0,0 c 0,-42.439 -34.404,-76.844 -76.844,-76.844 -42.439,0 -76.843,34.405 -76.843,76.844 0,42.439 34.404,76.844 76.843,76.844 C -34.404,76.844 0,42.439 0,0" /></g><g
           transform="translate(261.1006,94.1854)"
           id="g24"><path
             id="path26"
             style="fill:#393744;fill-opacity:1;fill-rule:nonzero;stroke:none"
             d="m 0,0 c 0.008,0.559 0.042,1.115 0.042,1.683 0,52.86 -43.008,95.859 -95.86,95.859 -52.86,0 -95.866,-42.999 -95.866,-95.859 0,-0.568 0.032,-1.124 0.04,-1.683 l -49.298,0 0,146.241 290.242,0 L 49.3,0 0,0 Z m -95.818,-74.019 c -41.743,0 -75.701,33.958 -75.701,75.702 0,41.735 33.958,75.701 75.701,75.701 41.735,0 75.693,-33.958 75.693,-75.701 0,-41.744 -33.958,-75.702 -75.693,-75.702 m -86.645,281.655 0,-9.116 c 0,-5.564 4.522,-10.083 10.083,-10.083 5.572,0 10.084,4.519 10.084,10.083 l 0,9.116 56.397,0 0,-9.116 c 0,-5.564 4.511,-10.083 10.081,-10.083 5.564,0 10.075,4.519 10.075,10.083 l 0,9.116 58.898,0 0,-9.116 c 0,-5.564 4.523,-10.083 10.084,-10.083 5.571,0 10.084,4.519 10.084,10.083 l 0,9.116 55.977,0 0,-41.228 -290.234,0 0,41.228 58.471,0 z m 241.846,20.156 -66.06,0 0,9.944 c 0,5.571 -4.513,10.082 -10.084,10.082 -5.561,0 -10.084,-4.511 -10.084,-10.082 l 0,-9.944 -58.898,0 0,9.944 c 0,5.571 -4.511,10.082 -10.075,10.082 -5.57,0 -10.081,-4.511 -10.081,-10.082 l 0,-9.944 -56.397,0 0,9.944 c 0,5.571 -4.512,10.082 -10.084,10.082 -5.561,0 -10.083,-4.511 -10.083,-10.082 l 0,-9.944 -68.554,0 c -5.572,0 -10.084,-4.512 -10.084,-10.084 l 0,-227.791 c 0,-5.562 4.512,-10.082 10.084,-10.082 l 61.877,0 c 9.909,-42.358 47.977,-74.021 93.322,-74.021 45.337,0 83.405,31.663 93.316,74.021 l 61.877,0 c 5.57,0 10.083,4.52 10.083,10.082 l 0,227.791 c 0,5.572 -4.513,10.084 -10.075,10.084" /></g><g
           transform="translate(175.3574,93.3241)"
           id="g28"><path
             id="path30"
             style="fill:#393744;fill-opacity:1;fill-rule:nonzero;stroke:none"
             d="m 0,0 0,48.768 c 0,5.569 -4.511,10.083 -10.075,10.083 -5.57,0 -10.081,-4.514 -10.081,-10.083 l 0,-52.943 c 0,-2.676 1.056,-5.242 2.953,-7.131 L 5.965,-34.482 c 1.971,-1.968 4.545,-2.954 7.131,-2.954 2.575,0 5.16,0.986 7.128,2.954 3.938,3.938 3.938,10.321 0,14.258 L 0,0 Z" /></g></g></g></g></svg>