<?xml version="1.0" encoding="UTF-8" standalone="no"?>
<svg
   xmlns:dc="http://purl.org/dc/elements/1.1/"
   xmlns:cc="http://creativecommons.org/ns#"
   xmlns:rdf="http://www.w3.org/1999/02/22-rdf-syntax-ns#"
   xmlns:svg="http://www.w3.org/2000/svg"
   xmlns="http://www.w3.org/2000/svg"
   viewBox="0 0 451.45001 479.75125"
   height="479.75125"
   width="451.45001"
   xml:space="preserve"
   version="1.1"
   id="svg2"><metadata
     id="metadata8"><rdf:RDF><cc:Work
         rdf:about=""><dc:format>image/svg+xml</dc:format><dc:type
           rdf:resource="http://purl.org/dc/dcmitype/StillImage" /></cc:Work></rdf:RDF></metadata><defs
     id="defs6"><clipPath
       id="clipPath16"
       clipPathUnits="userSpaceOnUse"><path
         id="path18"
         d="m 0,383.801 361.16,0 L 361.16,0 0,0 0,383.801 Z" /></clipPath></defs><g
     transform="matrix(1.25,0,0,-1.25,0,479.75125)"
     id="g10"><g
       id="g12"><g
         clip-path="url(#clipPath16)"
         id="g14"><g
           transform="translate(81.0452,234.301)"
           id="g20"><path
             id="path22"
             style="fill:#9cc659;fill-opacity:1;fill-rule:nonzero;stroke:none"
             d="m 0,0 -25,0 c -27.5,0 -50,-22.5 -50,-50 l 0,-23 c 0,-27.5 22.5,-50 50,-50 l 25,0 0,123 z" /></g><g
           transform="translate(275.0462,234.301)"
           id="g24"><path
             id="path26"
             style="fill:#9cc659;fill-opacity:1;fill-rule:nonzero;stroke:none"
             d="m 0,0 25,0 c 27.5,0 50,-22.5 50,-50 l 0,-23 c 0,-27.5 -22.5,-50 -50,-50 L 0,-123 0,0 Z" /></g><g
           transform="translate(340.5388,162.3791)"
           id="g28"><path
             id="path30"
             style="fill:#393744;fill-opacity:1;fill-rule:nonzero;stroke:none"
             d="m 0,0 c 0,-18.316 -14.879,-33.199 -33.199,-33.199 l -19.918,0 0,89.281 19.918,0 C -14.879,56.082 0,41.203 0,22.883 L 0,0 Z m -135.758,-141.68 -24.082,0 c -8,0 -14.48,6.481 -14.48,14.481 0,8 6.48,14.48 14.48,14.48 l 24.082,0 c 8,0 14.481,-6.48 14.481,-14.48 0,-8 -6.481,-14.481 -14.481,-14.481 m -130.801,108.481 -19.921,0 c -18.321,0 -33.2,14.883 -33.2,33.199 l 0,22.883 c 0,18.32 14.879,33.199 33.2,33.199 l 19.921,0 0,-89.281 z m 236.879,108.32 0,14.641 c 0,35.039 -12.398,67.601 -34.879,91.762 -23.039,24.796 -54.718,38.398 -89.281,38.398 l -12.078,0 c -34.562,0 -66.242,-13.602 -89.281,-38.398 -22.481,-24.161 -34.879,-56.723 -34.879,-91.762 l 0,-14.641 c -27.281,-1.84 -48.961,-24.558 -48.961,-52.32 l 0,-22.879 c 0,-28.879 23.52,-52.399 52.398,-52.399 l 29.524,0 c 5.277,0 9.598,4.321 9.598,9.598 l 0,108.563 c 0,5.277 -4.321,9.597 -9.598,9.597 l -13.762,0 0,14.481 c 0,63.281 45.121,110.961 104.879,110.961 l 12.082,0 c 59.84,0 104.879,-47.68 104.879,-110.961 l 0,-14.481 -13.762,0 c -5.277,0 -9.597,-4.32 -9.597,-9.597 l 0,-108.481 c 0,-5.281 4.32,-9.601 9.597,-9.601 l 13.442,0 c -3.918,-50.079 -38.399,-61.68 -54.399,-64.321 -4.402,13.52 -17.121,23.281 -32.082,23.281 l -24,0 c -18.558,0 -33.679,-15.121 -33.679,-33.679 0,-18.563 15.121,-33.762 33.679,-33.762 l 24.082,0 c 15.52,0 28.559,10.563 32.481,24.801 7.84,1.121 20.238,3.922 32.558,11.121 17.36,10.16 37.918,30.879 40.641,72.641 C -2.641,-50.637 19.121,-27.84 19.121,0 l 0,22.883 c 0.078,27.68 -21.519,50.48 -48.801,52.238" /></g><g
           transform="translate(340.5388,162.3791)"
           id="g32"><path
             id="path34"
             style="fill:none;stroke:#393844;stroke-width:3;stroke-linecap:butt;stroke-linejoin:miter;stroke-miterlimit:10;stroke-dasharray:none;stroke-opacity:1"
             d="m 0,0 c 0,-18.316 -14.879,-33.199 -33.199,-33.199 l -19.918,0 0,89.281 19.918,0 C -14.879,56.082 0,41.203 0,22.883 L 0,0 Z m -135.758,-141.68 -24.082,0 c -8,0 -14.48,6.481 -14.48,14.481 0,8 6.48,14.48 14.48,14.48 l 24.082,0 c 8,0 14.481,-6.48 14.481,-14.48 0,-8 -6.481,-14.481 -14.481,-14.481 z m -130.801,108.481 -19.921,0 c -18.321,0 -33.2,14.883 -33.2,33.199 l 0,22.883 c 0,18.32 14.879,33.199 33.2,33.199 l 19.921,0 0,-89.281 z m 236.879,108.32 0,14.641 c 0,35.039 -12.398,67.601 -34.879,91.762 -23.039,24.796 -54.718,38.398 -89.281,38.398 l -12.078,0 c -34.562,0 -66.242,-13.602 -89.281,-38.398 -22.481,-24.161 -34.879,-56.723 -34.879,-91.762 l 0,-14.641 c -27.281,-1.84 -48.961,-24.558 -48.961,-52.32 l 0,-22.879 c 0,-28.879 23.52,-52.399 52.398,-52.399 l 29.524,0 c 5.277,0 9.598,4.321 9.598,9.598 l 0,108.563 c 0,5.277 -4.321,9.597 -9.598,9.597 l -13.762,0 0,14.481 c 0,63.281 45.121,110.961 104.879,110.961 l 12.082,0 c 59.84,0 104.879,-47.68 104.879,-110.961 l 0,-14.481 -13.762,0 c -5.277,0 -9.597,-4.32 -9.597,-9.597 l 0,-108.481 c 0,-5.281 4.32,-9.601 9.597,-9.601 l 13.442,0 c -3.918,-50.079 -38.399,-61.68 -54.399,-64.321 -4.402,13.52 -17.121,23.281 -32.082,23.281 l -24,0 c -18.558,0 -33.679,-15.121 -33.679,-33.679 0,-18.563 15.121,-33.762 33.679,-33.762 l 24.082,0 c 15.52,0 28.559,10.563 32.481,24.801 7.84,1.121 20.238,3.922 32.558,11.121 17.36,10.16 37.918,30.879 40.641,72.641 C -2.641,-50.637 19.121,-27.84 19.121,0 l 0,22.883 c 0.078,27.68 -21.519,50.48 -48.801,52.238 z" /></g></g></g></g></svg>