<?xml version="1.0" encoding="UTF-8" standalone="no"?>
<svg
   xmlns:dc="http://purl.org/dc/elements/1.1/"
   xmlns:cc="http://creativecommons.org/ns#"
   xmlns:rdf="http://www.w3.org/1999/02/22-rdf-syntax-ns#"
   xmlns:svg="http://www.w3.org/2000/svg"
   xmlns="http://www.w3.org/2000/svg"
   viewBox="0 0 247.60875 484.655"
   height="484.655"
   width="247.60875"
   xml:space="preserve"
   version="1.1"
   id="svg2"><metadata
     id="metadata8"><rdf:RDF><cc:Work
         rdf:about=""><dc:format>image/svg+xml</dc:format><dc:type
           rdf:resource="http://purl.org/dc/dcmitype/StillImage" /></cc:Work></rdf:RDF></metadata><defs
     id="defs6"><clipPath
       id="clipPath16"
       clipPathUnits="userSpaceOnUse"><path
         id="path18"
         d="m 0,387.724 198.087,0 L 198.087,0 0,0 0,387.724 Z" /></clipPath></defs><g
     transform="matrix(1.25,0,0,-1.25,0,484.655)"
     id="g10"><g
       id="g12"><g
         clip-path="url(#clipPath16)"
         id="g14"><g
           transform="translate(10.1667,141.8527)"
           id="g20"><path
             id="path22"
             style="fill:#9cc659;fill-opacity:1;fill-rule:nonzero;stroke:none"
             d="M 0,0 C 0,0 16,-60.667 70.667,-58.667 L 94,-50 89.138,-75.334 c 0,0 -4.471,-8.666 14.196,-8.666 18.666,0 46.666,12 50,18 3.333,6 13.333,20.666 16.666,28 3.334,7.333 5.334,12.666 5.334,12.666 0,0 -34,7.334 -49.334,-2 C 110.667,-36.667 105.334,-42 105.334,-42 l -10.667,2.666 c 0,0 -11.333,7.334 -14,16 -2.667,8.667 -13.333,11.442 -22,16.388 C 50,-2 25.334,0.666 19.334,0 13.334,-0.667 0,0 0,0" /></g><g
           transform="translate(126.4704,64.8302)"
           id="g24"><path
             id="path26"
             style="fill:#393744;fill-opacity:1;fill-rule:nonzero;stroke:none"
             d="m 0,0 c -8.442,0 -14.907,3.994 -17.822,6.187 -0.431,4.139 -0.415,13.174 6.013,21.242 8.837,11.095 27.353,16.956 53.541,16.956 2.648,0 5.396,-0.056 8.22,-0.176 C 33.907,15.23 16.759,0 0,0 m -44.415,137.574 c -0.162,0.111 -0.284,0.188 -0.451,0.283 -1.325,0.8 -32.288,20.064 -15.573,71.45 12.309,37.86 57.422,62.697 83.555,74.247 -4.546,-12.031 -7.562,-28.395 -1.422,-45.66 2.278,-6.407 5.137,-11.444 7.901,-16.319 5.335,-9.394 10.371,-18.261 11.84,-38.042 1.143,-15.397 -2.632,-27.894 -11.222,-37.147 -9.824,-10.584 -25.809,-16.652 -43.859,-16.652 -12.108,0 -23.608,2.93 -30.769,7.84 m -41.439,11.343 c -9.01,8.964 -13.565,21 -13.53,35.776 0.045,20.645 6.686,35.972 12.021,48.287 1.68,3.871 3.265,7.532 4.409,10.882 5.563,16.273 3.038,30.592 -1.159,41.146 11.687,-4.373 27.494,-11.5 43.346,-22.383 -15.097,-13.053 -28.171,-29.175 -34.462,-48.509 -10.691,-32.886 -4.283,-55.344 2.981,-68.398 1.994,-3.589 4.164,-6.671 6.315,-9.308 -7.1,2.759 -14.121,6.737 -19.921,12.507 M -13.898,305.021 2.055,290.853 C -7.436,286 -17.878,279.94 -28.026,272.646 c -0.126,0.103 -0.247,0.209 -0.38,0.305 -9.161,6.59 -18.348,11.96 -26.76,16.268 M -37.03,31.671 c -2.936,-2.212 -9.39,-6.192 -17.818,-6.192 l -0.005,0 c -16.763,0 -33.913,15.231 -49.957,44.209 2.83,0.118 5.573,0.177 8.225,0.177 26.184,0 44.698,-5.861 53.537,-16.957 6.443,-8.077 6.443,-17.132 6.018,-21.237 M 69.121,54.969 c -1.251,2.238 -3.523,3.706 -6.073,3.938 -7.498,0.684 -14.67,1.028 -21.316,1.028 -27.474,0 -47.781,-5.827 -60.53,-17.336 l 0,71.738 c 1.7,-0.098 3.421,-0.151 5.152,-0.151 22.357,0 42.497,7.88 55.252,21.622 11.49,12.37 16.795,29.271 15.337,48.879 -1.731,23.258 -8.154,34.581 -13.823,44.567 -2.546,4.485 -4.956,8.722 -6.773,13.849 -9.12,25.652 9.455,50.383 9.632,50.615 2.085,2.688 2.171,6.423 0.223,9.213 -1.953,2.788 -5.492,3.983 -8.737,2.95 -1.063,-0.339 -8.938,-2.904 -20.14,-7.795 l -24.041,21.351 c -1.949,1.725 -4.637,2.363 -7.147,1.699 -35.807,-9.459 -52.342,-19.78 -58.169,-24.147 -1.726,0.712 -17.483,6.372 -21.045,7.404 -7.005,2.02 -8.676,2.505 -11.607,1.003 -2.167,-1.113 -3.689,-3.174 -4.11,-5.574 -0.42,-2.398 0.305,-4.859 1.965,-6.64 0.177,-0.192 17.67,-19.402 9.166,-44.289 -0.946,-2.768 -2.348,-5.993 -3.963,-9.733 -5.594,-12.907 -13.251,-30.577 -13.302,-54.432 -0.046,-19.078 6.049,-34.834 18.111,-46.835 19.607,-19.501 48.231,-22.736 62.47,-23.04 l 0,-48.384 c -12.609,12.578 -33.508,18.945 -62.238,18.945 -6.646,0 -13.818,-0.344 -21.314,-1.027 -2.551,-0.233 -4.825,-1.705 -6.074,-3.938 -1.255,-2.231 -1.332,-4.939 -0.198,-7.238 20.648,-41.985 43.966,-63.28 69.318,-63.28 l 0.005,0 c 8.332,0 15.318,2.434 20.501,5.132 l 0,-70.619 c 0,-4.292 3.482,-7.774 7.775,-7.774 4.297,0 7.774,3.482 7.774,7.774 l 0,44.294 c 4.975,-2.339 11.347,-4.287 18.798,-4.287 25.354,0 48.678,21.289 69.323,63.285 1.123,2.299 1.053,5.001 -0.202,7.233" /></g><g
           transform="translate(126.4704,64.8302)"
           id="g28"><path
             id="path30"
             style="fill:none;stroke:#393844;stroke-width:3;stroke-linecap:butt;stroke-linejoin:miter;stroke-miterlimit:10;stroke-dasharray:none;stroke-opacity:1"
             d="m 0,0 c -8.442,0 -14.907,3.994 -17.822,6.187 -0.431,4.139 -0.415,13.174 6.013,21.242 8.837,11.095 27.353,16.956 53.541,16.956 2.648,0 5.396,-0.056 8.22,-0.176 C 33.907,15.23 16.759,0 0,0 Z m -44.415,137.574 c -0.162,0.111 -0.284,0.188 -0.451,0.283 -1.325,0.8 -32.288,20.064 -15.573,71.45 12.309,37.86 57.422,62.697 83.555,74.247 -4.546,-12.031 -7.562,-28.395 -1.422,-45.66 2.278,-6.407 5.137,-11.444 7.901,-16.319 5.335,-9.394 10.371,-18.261 11.84,-38.042 1.143,-15.397 -2.632,-27.894 -11.222,-37.147 -9.824,-10.584 -25.809,-16.652 -43.859,-16.652 -12.108,0 -23.608,2.93 -30.769,7.84 z m -41.439,11.343 c -9.01,8.964 -13.565,21 -13.53,35.776 0.045,20.645 6.686,35.972 12.021,48.287 1.68,3.871 3.265,7.532 4.409,10.882 5.563,16.273 3.038,30.592 -1.159,41.146 11.687,-4.373 27.494,-11.5 43.346,-22.383 -15.097,-13.053 -28.171,-29.175 -34.462,-48.509 -10.691,-32.886 -4.283,-55.344 2.981,-68.398 1.994,-3.589 4.164,-6.671 6.315,-9.308 -7.1,2.759 -14.121,6.737 -19.921,12.507 z M -13.898,305.021 2.055,290.853 C -7.436,286 -17.878,279.94 -28.026,272.646 c -0.126,0.103 -0.247,0.209 -0.38,0.305 -9.161,6.59 -18.348,11.96 -26.76,16.268 M -37.03,31.671 c -2.936,-2.212 -9.39,-6.192 -17.818,-6.192 l -0.005,0 c -16.763,0 -33.913,15.231 -49.957,44.209 2.83,0.118 5.573,0.177 8.225,0.177 26.184,0 44.698,-5.861 53.537,-16.957 6.443,-8.077 6.443,-17.132 6.018,-21.237 z M 69.121,54.969 c -1.251,2.238 -3.523,3.706 -6.073,3.938 -7.498,0.684 -14.67,1.028 -21.316,1.028 -27.474,0 -47.781,-5.827 -60.53,-17.336 l 0,71.738 c 1.7,-0.098 3.421,-0.151 5.152,-0.151 22.357,0 42.497,7.88 55.252,21.622 11.49,12.37 16.795,29.271 15.337,48.879 -1.731,23.258 -8.154,34.581 -13.823,44.567 -2.546,4.485 -4.956,8.722 -6.773,13.849 -9.12,25.652 9.455,50.383 9.632,50.615 2.085,2.688 2.171,6.423 0.223,9.213 -1.953,2.788 -5.492,3.983 -8.737,2.95 -1.063,-0.339 -8.938,-2.904 -20.14,-7.795 l -24.041,21.351 c -1.949,1.725 -4.637,2.363 -7.147,1.699 -35.807,-9.459 -52.342,-19.78 -58.169,-24.147 -1.726,0.712 -17.483,6.372 -21.045,7.404 -7.005,2.02 -8.676,2.505 -11.607,1.003 -2.167,-1.113 -3.689,-3.174 -4.11,-5.574 -0.42,-2.398 0.305,-4.859 1.965,-6.64 0.177,-0.192 17.67,-19.402 9.166,-44.289 -0.946,-2.768 -2.348,-5.993 -3.963,-9.733 -5.594,-12.907 -13.251,-30.577 -13.302,-54.432 -0.046,-19.078 6.049,-34.834 18.111,-46.835 19.607,-19.501 48.231,-22.736 62.47,-23.04 l 0,-48.384 c -12.609,12.578 -33.508,18.945 -62.238,18.945 -6.646,0 -13.818,-0.344 -21.314,-1.027 -2.551,-0.233 -4.825,-1.705 -6.074,-3.938 -1.255,-2.231 -1.332,-4.939 -0.198,-7.238 20.648,-41.985 43.966,-63.28 69.318,-63.28 l 0.005,0 c 8.332,0 15.318,2.434 20.501,5.132 l 0,-70.619 c 0,-4.292 3.482,-7.774 7.775,-7.774 4.297,0 7.774,3.482 7.774,7.774 l 0,44.294 c 4.975,-2.339 11.347,-4.287 18.798,-4.287 25.354,0 48.678,21.289 69.323,63.285 1.123,2.299 1.053,5.001 -0.202,7.233 z" /></g></g></g></g></svg>