<?xml version="1.0" encoding="UTF-8" standalone="no"?>
<svg
   xmlns:dc="http://purl.org/dc/elements/1.1/"
   xmlns:cc="http://creativecommons.org/ns#"
   xmlns:rdf="http://www.w3.org/1999/02/22-rdf-syntax-ns#"
   xmlns:svg="http://www.w3.org/2000/svg"
   xmlns="http://www.w3.org/2000/svg"
   viewBox="0 0 416.94876 484.75125"
   height="484.75125"
   width="416.94876"
   xml:space="preserve"
   version="1.1"
   id="svg2"><metadata
     id="metadata8"><rdf:RDF><cc:Work
         rdf:about=""><dc:format>image/svg+xml</dc:format><dc:type
           rdf:resource="http://purl.org/dc/dcmitype/StillImage" /></cc:Work></rdf:RDF></metadata><defs
     id="defs6"><clipPath
       id="clipPath16"
       clipPathUnits="userSpaceOnUse"><path
         id="path18"
         d="m 0,387.801 333.559,0 L 333.559,0 0,0 0,387.801 Z" /></clipPath></defs><g
     transform="matrix(1.25,0,0,-1.25,0,484.75125)"
     id="g10"><g
       id="g12"><g
         clip-path="url(#clipPath16)"
         id="g14"><g
           transform="translate(77.5,355.301)"
           id="g20"><path
             id="path22"
             style="fill:#9cc659;fill-opacity:1;fill-rule:nonzero;stroke:none"
             d="m 0,0 46.559,-74 c 0,0 45.441,0.667 47.441,0 2,-0.667 36.667,0 36.667,0 l 38.666,77.333 0,10.667 c 0,0 -27.333,10.667 -38,4.667 C 120.667,12.667 96.667,7.333 96.667,7.333 96.667,7.333 78,8 66,12.667 54,17.333 46.667,24.996 39.333,20.498 32,16 0,0 0,0" /></g><g
           transform="translate(179.7383,144.7815)"
           id="g24"><path
             id="path26"
             style="fill:#393744;fill-opacity:1;fill-rule:nonzero;stroke:none"
             d="m 0,0 -22,0 c -8,0 -14.476,6.48 -14.476,14.48 0,8 6.476,14.481 14.476,14.481 l 38.723,0 c 5.277,0 9.597,4.32 9.597,9.598 0,5.281 -4.32,9.601 -9.597,9.601 l -18.16,0 0,13.36 c 0,5.28 -4.321,9.602 -9.602,9.602 -5.277,0 -9.597,-4.322 -9.597,-9.602 l 0,-13.36 -1.364,0 c -18.558,0 -33.679,-15.121 -33.679,-33.68 0,-18.562 15.121,-33.679 33.679,-33.679 l 22,0 c 8,0 14.48,-6.481 14.48,-14.481 0,-8 -6.48,-14.48 -14.48,-14.48 l -39.438,0 c -5.28,0 -9.601,-4.32 -9.601,-9.602 0,-5.277 4.321,-9.597 9.601,-9.597 l 18.88,0 0,-13.68 c 0,-5.281 4.32,-9.602 9.601,-9.602 5.277,0 9.598,4.321 9.598,9.602 l 0,13.68 1.839,0 c 18.403,0.238 33.204,15.277 33.204,33.679 C 33.684,-15.121 18.562,0 0,0" /></g><g
           transform="translate(179.7383,144.7815)"
           id="g28"><path
             id="path30"
             style="fill:none;stroke:#393844;stroke-width:3;stroke-linecap:butt;stroke-linejoin:miter;stroke-miterlimit:10;stroke-dasharray:none;stroke-opacity:1"
             d="m 0,0 -22,0 c -8,0 -14.476,6.48 -14.476,14.48 0,8 6.476,14.481 14.476,14.481 l 38.723,0 c 5.277,0 9.597,4.32 9.597,9.598 0,5.281 -4.32,9.601 -9.597,9.601 l -18.16,0 0,13.36 c 0,5.28 -4.321,9.602 -9.602,9.602 -5.277,0 -9.597,-4.322 -9.597,-9.602 l 0,-13.36 -1.364,0 c -18.558,0 -33.679,-15.121 -33.679,-33.68 0,-18.562 15.121,-33.679 33.679,-33.679 l 22,0 c 8,0 14.48,-6.481 14.48,-14.481 0,-8 -6.48,-14.48 -14.48,-14.48 l -39.438,0 c -5.28,0 -9.601,-4.32 -9.601,-9.602 0,-5.277 4.321,-9.597 9.601,-9.597 l 18.88,0 0,-13.68 c 0,-5.281 4.32,-9.602 9.601,-9.602 5.277,0 9.598,4.321 9.598,9.602 l 0,13.68 1.839,0 c 18.403,0.238 33.204,15.277 33.204,33.679 C 33.684,-15.121 18.562,0 0,0 Z" /></g><g
           transform="translate(257.5781,20.6994)"
           id="g32"><path
             id="path34"
             style="fill:#393744;fill-opacity:1;fill-rule:nonzero;stroke:none"
             d="m 0,0 -181.598,0 c -30.48,0 -55.281,24.801 -55.281,55.281 0,51.282 18.801,99.922 55.762,144.558 23.359,28.243 47.117,45.763 54.32,50.884 l 71.84,0 C -47.68,245.68 -24,228.082 -0.637,199.839 36.402,155.203 55.121,106.641 55.121,55.281 55.281,24.801 30.48,0 0,0 m -166.398,333.122 c 9.281,8 18.16,11.519 28.8,11.519 11.36,0 24.161,-3.84 41.2,-10.161 3.519,-1.276 7.281,-1.918 11.121,-1.918 9.359,0 18.32,3.681 26.879,7.277 8.242,3.443 16.082,6.723 23.679,6.723 3.68,0 8.879,-0.641 15.442,-5.28 l -38.403,-71.361 -66.878,0 -41.84,63.201 z M 55.441,145.84 c -10.078,23.203 -24,45.683 -41.597,66.722 -21.281,25.599 -42.481,42.72 -53.282,50.642 l 40.801,75.678 c 2,3.759 1.36,8.4 -1.761,11.361 -10.559,10.319 -21.758,15.359 -34.239,15.359 -11.441,0 -21.922,-4.32 -31.043,-8.161 -7.199,-2.961 -14,-5.839 -19.519,-5.839 -1.68,0 -3.117,0.237 -4.559,0.8 -19.039,6.962 -33.679,11.278 -47.84,11.278 -17.921,0 -33.199,-7.2 -48.16,-22.558 -3.121,-3.201 -3.601,-8.24 -1.121,-12 l 44,-66.481 c -10.879,-8.079 -31.679,-25.039 -52.558,-50.079 -17.52,-21.039 -31.52,-43.519 -41.602,-66.722 -12.641,-29.199 -19.039,-59.68 -19.039,-90.559 0,-41.039 33.441,-74.48 74.48,-74.48 l 181.598,0 c 41.043,0 74.48,33.441 74.48,74.48 0,30.879 -6.398,61.36 -19.039,90.559" /></g><g
           transform="translate(257.5781,20.6994)"
           id="g36"><path
             id="path38"
             style="fill:none;stroke:#393844;stroke-width:3;stroke-linecap:butt;stroke-linejoin:miter;stroke-miterlimit:10;stroke-dasharray:none;stroke-opacity:1"
             d="m 0,0 -181.598,0 c -30.48,0 -55.281,24.801 -55.281,55.281 0,51.282 18.801,99.922 55.762,144.558 23.359,28.243 47.117,45.763 54.32,50.884 l 71.84,0 C -47.68,245.68 -24,228.082 -0.637,199.839 36.402,155.203 55.121,106.641 55.121,55.281 55.281,24.801 30.48,0 0,0 Z m -166.398,333.122 c 9.281,8 18.16,11.519 28.8,11.519 11.36,0 24.161,-3.84 41.2,-10.161 3.519,-1.276 7.281,-1.918 11.121,-1.918 9.359,0 18.32,3.681 26.879,7.277 8.242,3.443 16.082,6.723 23.679,6.723 3.68,0 8.879,-0.641 15.442,-5.28 l -38.403,-71.361 -66.878,0 -41.84,63.201 z M 55.441,145.84 c -10.078,23.203 -24,45.683 -41.597,66.722 -21.281,25.599 -42.481,42.72 -53.282,50.642 l 40.801,75.678 c 2,3.759 1.36,8.4 -1.761,11.361 -10.559,10.319 -21.758,15.359 -34.239,15.359 -11.441,0 -21.922,-4.32 -31.043,-8.161 -7.199,-2.961 -14,-5.839 -19.519,-5.839 -1.68,0 -3.117,0.237 -4.559,0.8 -19.039,6.962 -33.679,11.278 -47.84,11.278 -17.921,0 -33.199,-7.2 -48.16,-22.558 -3.121,-3.201 -3.601,-8.24 -1.121,-12 l 44,-66.481 c -10.879,-8.079 -31.679,-25.039 -52.558,-50.079 -17.52,-21.039 -31.52,-43.519 -41.602,-66.722 -12.641,-29.199 -19.039,-59.68 -19.039,-90.559 0,-41.039 33.441,-74.48 74.48,-74.48 l 181.598,0 c 41.043,0 74.48,33.441 74.48,74.48 0,30.879 -6.398,61.36 -19.039,90.559 z" /></g></g></g></g></svg>