<?xml version="1.0" encoding="UTF-8" standalone="no"?>
<svg
   xmlns:dc="http://purl.org/dc/elements/1.1/"
   xmlns:cc="http://creativecommons.org/ns#"
   xmlns:rdf="http://www.w3.org/1999/02/22-rdf-syntax-ns#"
   xmlns:svg="http://www.w3.org/2000/svg"
   xmlns="http://www.w3.org/2000/svg"
   viewBox="0 0 702.34375 441.49124"
   height="441.49124"
   width="702.34375"
   xml:space="preserve"
   version="1.1"
   id="svg2"><metadata
     id="metadata8"><rdf:RDF><cc:Work
         rdf:about=""><dc:format>image/svg+xml</dc:format><dc:type
           rdf:resource="http://purl.org/dc/dcmitype/StillImage" /></cc:Work></rdf:RDF></metadata><defs
     id="defs6"><clipPath
       id="clipPath16"
       clipPathUnits="userSpaceOnUse"><path
         id="path18"
         d="m 0,353.193 561.875,0 L 561.875,0 0,0 0,353.193 Z" /></clipPath></defs><g
     transform="matrix(1.25,0,0,-1.25,0,441.49125)"
     id="g10"><g
       id="g12"><g
         clip-path="url(#clipPath16)"
         id="g14"><g
           transform="translate(265.6947,265.6594)"
           id="g20"><path
             id="path22"
             style="fill:#9cc659;fill-opacity:1;fill-rule:nonzero;stroke:none"
             d="m 0,0 c 0,-42.439 -34.404,-76.844 -76.844,-76.844 -42.439,0 -76.843,34.405 -76.843,76.844 0,42.439 34.404,76.844 76.843,76.844 C -34.404,76.844 0,42.439 0,0" /></g><g
           transform="translate(539.4896,53.5325)"
           id="g24"><path
             id="path26"
             style="fill:#393744;fill-opacity:1;fill-rule:nonzero;stroke:none"
             d="M 0,0 -14.6,0 C -19.521,17.931 -35.955,31.147 -55.428,31.147 -74.899,31.147 -91.332,17.931 -96.254,0 l -12.005,0 0,136.809 49.198,0 L 0,69.386 0,0 Z m -55.428,-31.147 c -11.002,0 -19.953,8.952 -19.953,19.955 0,11.002 8.951,19.954 19.953,19.954 11.003,0 19.955,-8.952 19.955,-19.954 0,-11.003 -8.951,-19.955 -19.955,-19.955 m -230.999,0 c -11.002,0 -19.953,8.952 -19.953,19.955 0,11.002 8.951,19.954 19.953,19.954 11.004,0 19.955,-8.952 19.955,-19.954 0,-11.003 -8.952,-19.955 -19.955,-19.955 M -130.643,0 -245.6,0 c -4.921,17.931 -21.356,31.147 -40.828,31.147 -19.47,0 -35.904,-13.216 -40.826,-31.147 l -12.17,0 0,119.018 c 39.893,4.809 71.88,35.611 78.479,74.933 l 130.301,0 0,-193.951 0.001,0 z m -287.965,209 c 0,37.647 30.628,68.275 68.276,68.275 37.647,0 68.275,-30.628 68.275,-68.275 0,-37.648 -30.628,-68.276 -68.275,-68.276 -37.648,0 -68.276,30.628 -68.276,68.276 M -96.253,-22.386 c 4.921,-17.93 21.355,-31.146 40.826,-31.146 19.473,0 35.906,13.216 40.828,31.146 l 25.791,0 c 6.181,0 11.194,5.012 11.194,11.194 l 0,84.787 c 0,2.713 -0.987,5.334 -2.774,7.375 l -65.176,74.407 c -2.126,2.425 -5.195,3.817 -8.419,3.817 l -54.273,0 0,45.951 c 0,6.182 -5.013,11.193 -11.193,11.193 l -140.545,0 c -3.751,46.568 -42.819,83.323 -90.338,83.323 -49.991,0 -90.661,-40.67 -90.661,-90.661 0,-46.102 34.597,-84.249 79.185,-89.909 l 0,-96.523 -64.796,0 c -6.182,0 -11.193,-5.011 -11.193,-11.193 0,-6.182 5.011,-11.192 11.193,-11.192 l 64.796,0 0,-11.375 c 0,-6.182 5.012,-11.194 11.194,-11.194 l 23.362,0 c 4.922,-17.93 21.355,-31.146 40.826,-31.146 19.473,0 35.905,13.216 40.828,31.146 l 149.345,0 z" /></g><g
           transform="translate(76.0072,76.1008)"
           id="g28"><path
             id="path30"
             style="fill:#393744;fill-opacity:1;fill-rule:nonzero;stroke:none"
             d="m 0,0 -5.972,0 c -6.181,0 -11.193,-5.012 -11.193,-11.193 0,-6.182 5.012,-11.193 11.193,-11.193 l 5.972,0 c 6.183,0 11.193,5.011 11.193,11.193 C 11.193,-5.012 6.183,0 0,0" /></g><g
           transform="translate(25.4008,221.1897)"
           id="g32"><path
             id="path34"
             style="fill:#393744;fill-opacity:1;fill-rule:nonzero;stroke:none"
             d="m 0,0 44.635,0 c 6.181,0 11.192,5.011 11.192,11.192 0,6.182 -5.011,11.194 -11.192,11.194 L 0,22.386 c -6.182,0 -11.192,-5.012 -11.192,-11.194 C -11.192,5.011 -6.182,0 0,0" /></g><g
           transform="translate(142.3334,149.7766)"
           id="g36"><path
             id="path38"
             style="fill:#393744;fill-opacity:1;fill-rule:nonzero;stroke:none"
             d="m 0,0 c 0,6.182 -5.011,11.192 -11.192,11.192 l -119.949,0 c -6.181,0 -11.192,-5.01 -11.192,-11.192 0,-6.182 5.011,-11.192 11.192,-11.192 l 119.949,0 C -5.011,-11.192 0,-6.182 0,0" /></g><g
           transform="translate(208.3695,225.1272)"
           id="g40"><path
             id="path42"
             style="fill:#393744;fill-opacity:1;fill-rule:nonzero;stroke:none"
             d="m 0,0 c 2.864,0 5.729,1.093 7.914,3.278 4.371,4.37 4.371,11.458 0,15.829 l -15.934,15.934 0,47.76 c 0,6.181 -5.01,11.193 -11.192,11.193 -6.183,0 -11.193,-5.012 -11.193,-11.193 l 0,-52.397 c 0,-2.967 1.179,-5.815 3.278,-7.914 L -7.914,3.278 C -5.729,1.092 -2.864,0 0,0" /></g></g></g></g></svg>